<svg width="143" height="32" viewBox="0 0 143 32" fill="none"
    xmlns="http://www.w3.org/2000/svg">
    <path d="M4.81348 24.9908C4.81348 25.7496 6.02975 26.4773 8.19474 27.0138C10.3597 27.5504 13.2961 27.8518 16.3578 27.8518C19.4196 27.8518 22.3559 27.5504 24.5209 27.0138C26.6859 26.4773 27.9022 25.7496 27.9022 24.9908C27.9022 24.2321 26.6859 23.5044 24.5209 22.9678C22.3559 22.4313 19.4196 22.1299 16.3578 22.1299C13.2961 22.1299 10.3597 22.4313 8.19474 22.9678C6.02975 23.5044 4.81348 24.2321 4.81348 24.9908Z" fill="#B8CBCD"/>
    <path d="M29.8862 16.7109C29.8862 16.7109 23.8763 25.0029 16.4627 25.0029C9.0491 25.0029 3.03922 16.7109 3.03922 16.7109C3.03922 16.7109 9.0491 8.41891 16.4627 8.41891C23.8763 8.41891 29.8862 16.7109 29.8862 16.7109Z" fill="#B9E3ED"/>
    <path d="M16.4627 25.7295C8.76695 25.7295 2.70524 17.4881 2.45094 17.1372C2.36107 17.0132 2.31268 16.864 2.31268 16.7108C2.31268 16.5577 2.36107 16.4085 2.45094 16.2845C2.70524 15.9338 8.76695 7.69212 16.4627 7.69212C24.1585 7.69212 30.2202 15.9335 30.4745 16.2845C30.5643 16.4085 30.6127 16.5577 30.6127 16.7108C30.6127 16.864 30.5643 17.0132 30.4745 17.1372C30.2202 17.4881 24.1585 25.7295 16.4627 25.7295ZM3.95856 16.7109C5.28938 18.368 10.4572 24.2764 16.4627 24.2764C22.4682 24.2764 27.636 18.368 28.9668 16.7109C27.636 15.0539 22.4682 9.14549 16.4627 9.14549C10.4572 9.14549 5.28938 15.0539 3.95856 16.7109Z" fill="#324654"/>
    <path d="M10.6015 16.8635C10.6015 18.3671 11.1988 19.809 12.262 20.8722C13.3251 21.9354 14.7671 22.5326 16.2707 22.5326C17.7742 22.5326 19.2162 21.9354 20.2793 20.8722C21.3425 19.809 21.9398 18.3671 21.9398 16.8635C21.9398 15.36 21.3425 13.918 20.2793 12.8548C19.2162 11.7917 17.7742 11.1944 16.2707 11.1944C14.7671 11.1944 13.3251 11.7917 12.262 12.8548C11.1988 13.918 10.6015 15.36 10.6015 16.8635Z" fill="white"/>
    <path d="M16.2704 23.0173C12.8774 23.0173 10.1169 20.2568 10.1169 16.8635C10.1169 13.4705 12.8774 10.71 16.2704 10.71C19.6635 10.71 22.4242 13.4705 22.4242 16.8635C22.4242 20.2568 19.6637 23.0173 16.2704 23.0173ZM16.2704 11.6788C13.4114 11.6788 11.0857 14.0047 11.0857 16.8635C11.0857 19.7223 13.4116 22.0485 16.2704 22.0485C19.1294 22.0485 21.4554 19.7225 21.4554 16.8635C21.4554 14.0045 19.1294 11.6788 16.2704 11.6788Z" fill="#324654"/>
    <path d="M11.7398 18.9507H10.7711V18.4663C10.7711 17.4017 10.9115 15.3985 11.8515 13.9408C12.942 12.2496 14.9335 11.1569 16.9248 11.1569H17.4092V12.1256H16.9248C15.2542 12.1256 13.5824 13.0442 12.6657 14.4659C11.8602 15.7148 11.74 17.5085 11.74 18.4663L11.7398 18.9507Z" fill="#324654"/>
    <path d="M13.2871 16.8364C13.2871 17.5944 13.5883 18.3213 14.1242 18.8573C14.6602 19.3933 15.3872 19.6944 16.1452 19.6944C16.9032 19.6944 17.6302 19.3933 18.1661 18.8573C18.7021 18.3213 19.0032 17.5944 19.0032 16.8364C19.0032 16.0784 18.7021 15.3514 18.1661 14.8154C17.6302 14.2794 16.9032 13.9783 16.1452 13.9783C15.3872 13.9783 14.6602 14.2794 14.1242 14.8154C13.5883 15.3514 13.2871 16.0784 13.2871 16.8364Z" fill="#324654"/>
    <path d="M16.1452 20.1786C14.3021 20.1786 12.8028 18.6792 12.8028 16.8361C12.8028 14.9931 14.3021 13.4937 16.1452 13.4937C17.9882 13.4937 19.4876 14.9931 19.4876 16.8361C19.4876 18.6792 17.9882 20.1786 16.1452 20.1786ZM16.1452 14.4627C14.8364 14.4627 13.7715 15.5274 13.7715 16.8364C13.7715 18.1452 14.8362 19.2101 16.1452 19.2101C17.454 19.2101 18.5189 18.1454 18.5189 16.8364C18.5189 15.5274 17.454 14.4627 16.1452 14.4627Z" fill="#B9E3ED"/>
    <path d="M16.3789 8.71875C16.1862 8.71875 16.0014 8.6422 15.8651 8.50594C15.7289 8.36969 15.6523 8.18488 15.6523 7.99219V3.39063C15.6523 3.19793 15.7289 3.01312 15.8651 2.87687C16.0014 2.74061 16.1862 2.66406 16.3789 2.66406C16.5716 2.66406 16.7564 2.74061 16.8927 2.87687C17.0289 3.01312 17.1055 3.19793 17.1055 3.39063V7.99219C17.1055 8.18488 17.0289 8.36969 16.8927 8.50594C16.7564 8.6422 16.5716 8.71875 16.3789 8.71875ZM26.2069 12.215C26.0631 12.2152 25.9225 12.1727 25.8029 12.0929C25.6833 12.0131 25.5901 11.8996 25.535 11.7667C25.48 11.6339 25.4657 11.4877 25.4938 11.3467C25.522 11.2057 25.5914 11.0762 25.6932 10.9747L28.947 7.7207C29.0833 7.58443 29.2681 7.50787 29.4608 7.50787C29.6535 7.50787 29.8383 7.58443 29.9746 7.7207C30.1109 7.85696 30.1874 8.04178 30.1874 8.2345C30.1874 8.42721 30.1109 8.61203 29.9746 8.7483L26.7208 12.0021C26.6534 12.0696 26.5732 12.1232 26.4851 12.1598C26.3969 12.1963 26.3023 12.215 26.2069 12.215ZM6.93698 12.215C6.84152 12.2151 6.74698 12.1963 6.65878 12.1598C6.57059 12.1233 6.49048 12.0697 6.42306 12.0021L3.16951 8.74805C3.03325 8.61175 2.9567 8.4269 2.95673 8.23417C2.95675 8.04143 3.03333 7.8566 3.16963 7.72033C3.30594 7.58406 3.49079 7.50752 3.68352 7.50754C3.87626 7.50757 4.06109 7.58415 4.19736 7.72045L7.45115 10.9745C7.55284 11.0761 7.6221 11.2056 7.65015 11.3466C7.6782 11.4876 7.66379 11.6338 7.60875 11.7666C7.5537 11.8994 7.46048 12.0129 7.3409 12.0927C7.22132 12.1725 7.08075 12.2151 6.93698 12.215Z" fill="#324654"/>
    <g clip-path="url(#clip0_6_23)">
        <path fill-rule="evenodd" clip-rule="evenodd" d="M76.3983 20.5767H72.4005V19.8962L73.8485 19.5708V11.2276L72.4005 10.9021V10.2217H74.9503L81.5137 17.5442V11.2276L80.0656 10.9021V10.2217H84.1107V10.9021L82.6627 11.2276V20.5767H81.7183L74.9503 13.0767V19.5708L76.3983 19.8962V20.5767ZM49.4994 20.5767H41V19.8962L42.448 19.5708V11.2276L41 10.9021V10.2217H49.2003V13.2542H48.4606L47.7838 11.2128L44.384 11.0944V14.8962L47.7838 14.6152V15.9317L44.384 15.6655V19.7039L48.0828 19.5856L48.8855 17.3814H49.6253L49.4994 20.5767ZM51.4826 14.0974L50.4123 13.8163V13.1802H54.7092V13.8163L53.4972 14.0382L55.7322 18.7276L57.621 14.1122L56.3618 13.8163V13.1802H59.8403V13.8163L58.5969 14.127L54.1426 24.9998C53.7176 24.9998 53.3882 24.9479 53.1544 24.8442C53.1291 24.8329 53.1043 24.8206 53.0801 24.8075C52.9676 24.7472 52.8627 24.6752 52.7672 24.593C52.6789 24.5165 52.6015 24.4294 52.5371 24.3341L54.7879 20.9761L51.4826 14.0974ZM128.559 20.5767H121.681V19.6891L123.035 18.3282C123.162 18.1957 123.288 18.0611 123.411 17.9246C123.522 17.8021 123.638 17.671 123.758 17.5311C123.886 17.3836 124.012 17.2351 124.136 17.0856C124.376 16.7993 124.607 16.5067 124.829 16.2081C124.97 16.0178 125.106 15.8245 125.238 15.6285C125.553 15.16 125.823 14.6595 126.049 14.127C126.136 13.9234 126.209 13.7148 126.268 13.5024C126.347 13.2101 126.387 12.9351 126.387 12.6773C126.387 12.1804 126.278 11.767 126.06 11.4371C126.018 11.3744 125.973 11.3143 125.923 11.2572C125.613 10.9021 125.196 10.7246 124.672 10.7246L122.814 12.3223C122.548 12.1418 122.327 11.9077 122.169 11.6371C122.013 11.3597 121.927 11.0527 121.917 10.7394C122.935 10.2463 124.047 9.99977 125.254 9.99977C125.592 9.99769 125.929 10.0304 126.259 10.0974C126.705 10.1862 127.127 10.3621 127.497 10.6137C127.734 10.7759 127.932 10.9825 128.08 11.2204C128.227 11.4583 128.321 11.7223 128.355 11.9959C128.376 12.1383 128.387 12.282 128.386 12.4258C128.384 12.7798 128.333 13.132 128.233 13.4734C128.16 13.7295 128.066 13.9801 127.953 14.2231C127.665 14.8494 127.256 15.4731 126.726 16.0944C126.506 16.3524 126.282 16.6073 126.054 16.8589C125.777 17.1649 125.513 17.4426 125.262 17.6921C125.032 17.9202 124.798 18.1445 124.56 18.3649C124.326 18.5822 124.076 18.8077 123.81 19.0412C123.772 19.0748 123.734 19.1083 123.696 19.1418H127.458L128.307 17.5442H129L128.559 20.5767ZM85.8578 14.1122L84.5199 13.8163V13.1802H87.7308V18.2838C87.7285 18.471 87.7486 18.6579 87.7906 18.8409C87.9159 19.3543 88.2372 19.6533 88.7545 19.7379C88.8635 19.7552 88.9739 19.7636 89.0844 19.7631C89.6268 19.7607 90.1575 19.6144 90.6153 19.3409C90.7853 19.2419 90.9471 19.1308 91.0991 19.0086V14.1122L90.076 13.8163V13.1802H92.9721V19.6152H94.1998V20.1033C93.948 20.3104 93.6673 20.4781 93.3577 20.6063C93.1778 20.6819 92.9888 20.7366 92.7949 20.7693C92.6767 20.7887 92.5569 20.7985 92.437 20.7986C92.326 20.7992 92.2153 20.7894 92.1064 20.7693C92.0002 20.7495 91.8971 20.7171 91.7995 20.6728C91.7249 20.6393 91.654 20.5991 91.5876 20.5527C91.5084 20.4975 91.4391 20.4307 91.3824 20.3548C91.3547 20.3174 91.3278 20.2795 91.3015 20.2412C91.2513 20.1678 91.2121 20.1036 91.1838 20.0486C91.1818 20.0447 91.1798 20.0407 91.1778 20.0368C91.1654 20.0121 91.1539 19.9872 91.1432 19.9619C91.1209 19.9096 91.1062 19.8631 91.0991 19.8223C90.2701 20.4731 89.3782 20.7986 88.4234 20.7986C87.8091 20.7986 87.3029 20.6851 86.9048 20.4581C86.7605 20.3759 86.6282 20.2766 86.511 20.1625C86.195 19.8518 85.9855 19.4591 85.9097 19.0353C85.8743 18.8508 85.8569 18.6636 85.8578 18.4761V14.1122ZM102.384 20.4584V18.343H103.108L103.706 19.8962C103.912 19.9288 104.119 19.9519 104.327 19.9655C104.529 19.9788 104.732 19.9853 104.934 19.985C105.09 19.9854 105.246 19.9804 105.401 19.9699C105.707 19.948 105.958 19.9029 106.151 19.8347C106.224 19.8099 106.293 19.7785 106.359 19.7409C106.637 19.5782 106.776 19.2996 106.776 18.9051C106.776 18.7815 106.749 18.6593 106.695 18.5466C106.641 18.4339 106.562 18.3335 106.463 18.2521C106.418 18.2129 106.37 18.1765 106.319 18.1433C106.223 18.0804 106.123 18.0223 106.02 17.9693C105.809 17.8585 105.542 17.7384 105.222 17.6092C105.064 17.546 104.905 17.4848 104.745 17.4258C104.497 17.3293 104.255 17.2183 104.021 17.0936C103.655 16.8965 103.351 16.6794 103.108 16.4421C102.772 16.1126 102.569 15.6822 102.536 15.2264C102.529 15.151 102.526 15.0754 102.526 14.9998C102.526 14.339 102.822 13.8336 103.415 13.4835C103.71 13.3125 104.032 13.1854 104.368 13.1066C104.647 13.0387 104.95 12.9942 105.276 12.9728C105.43 12.963 105.583 12.9582 105.737 12.9584C106.156 12.9571 106.575 12.9836 106.99 13.0376C107.328 13.0817 107.661 13.1492 107.988 13.2394V15.2513H107.327L106.807 13.8607C106.503 13.7818 106.146 13.7424 105.737 13.7424C105.606 13.742 105.475 13.7471 105.344 13.7578C105.083 13.7799 104.872 13.8258 104.711 13.8956C104.653 13.9202 104.599 13.9507 104.549 13.9865C104.323 14.1492 104.21 14.3933 104.21 14.7187C104.21 14.8908 104.276 15.0571 104.397 15.1865C104.408 15.1985 104.419 15.2102 104.431 15.2217C104.577 15.3696 104.743 15.4904 104.926 15.5841C104.979 15.6107 105.032 15.6365 105.085 15.6613C105.256 15.7414 105.485 15.8401 105.77 15.9575C105.785 15.9637 105.8 15.9699 105.816 15.9761C106.066 16.074 106.314 16.1796 106.557 16.293C107.038 16.5182 107.422 16.7443 107.709 16.9714C107.764 17.015 107.818 17.0605 107.87 17.1078C108.228 17.4357 108.446 17.8766 108.48 18.3459C108.488 18.4236 108.491 18.5016 108.491 18.5797C108.491 19.2996 108.182 19.8494 107.563 20.2291C107.028 20.5569 106.353 20.7432 105.538 20.7879C105.405 20.7951 105.272 20.7987 105.139 20.7986C104.521 20.8007 103.904 20.7523 103.296 20.6539C102.989 20.6035 102.684 20.5382 102.384 20.4584ZM67.4897 16.9228H62.1697C62.2031 17.3306 62.304 17.731 62.4688 18.1095C62.6095 18.427 62.8006 18.7227 63.0354 18.9865C63.25 19.2304 63.5155 19.4304 63.8154 19.5744C64.1153 19.7184 64.4433 19.8032 64.7794 19.8237C64.8851 19.8327 64.9912 19.8372 65.0973 19.8371C65.6534 19.8371 66.2568 19.7236 66.9074 19.4968L67.1749 20.1921C66.7423 20.3737 66.2936 20.5194 65.8339 20.6276C65.3614 20.739 64.8762 20.7964 64.389 20.7986C63.947 20.8027 63.5065 20.748 63.0807 20.6362C62.4253 20.4623 61.838 20.1126 61.3906 19.6299C60.6614 18.8509 60.2967 17.9041 60.2967 16.7897C60.2926 16.3348 60.3589 15.8817 60.4935 15.4447C60.6528 14.9363 60.9235 14.4647 61.2883 14.0604C61.83 13.4563 62.6 13.0734 63.4361 12.9924C63.6321 12.9693 63.8295 12.9579 64.027 12.9584C64.2973 12.9571 64.5671 12.9806 64.8326 13.0285C65.1071 13.0777 65.3734 13.1611 65.6246 13.2764C65.9469 13.4231 66.2363 13.6263 66.4773 13.8752C66.5621 13.9637 66.6401 14.0577 66.7106 14.1566C66.9717 14.525 67.1661 14.9316 67.2857 15.3598C67.2909 15.3778 67.2959 15.3959 67.3008 15.414C67.3876 15.738 67.4439 16.0686 67.4693 16.4018C67.483 16.5752 67.4898 16.749 67.4897 16.9228ZM117.006 16.9228H111.686C111.72 17.3306 111.821 17.731 111.986 18.1095C112.126 18.427 112.317 18.7227 112.552 18.9865C112.767 19.2304 113.032 19.4304 113.332 19.5744C113.632 19.7184 113.96 19.8032 114.296 19.8237C114.402 19.8327 114.508 19.8372 114.614 19.8371C115.17 19.8371 115.774 19.7236 116.424 19.4968L116.692 20.1921C116.259 20.3737 115.81 20.5194 115.351 20.6276C114.878 20.739 114.393 20.7964 113.906 20.7986C113.464 20.8027 113.023 20.748 112.597 20.6362C111.942 20.4623 111.355 20.1126 110.907 19.6299C110.178 18.8509 109.813 17.9041 109.813 16.7897C109.809 16.3348 109.876 15.8817 110.01 15.4447C110.17 14.9363 110.44 14.4647 110.805 14.0604C111.347 13.4563 112.117 13.0734 112.953 12.9924C113.149 12.9693 113.346 12.9579 113.544 12.9584C113.814 12.9571 114.084 12.9806 114.349 13.0285C114.624 13.0777 114.89 13.1611 115.141 13.2764C115.464 13.4231 115.753 13.6263 115.994 13.8752C116.079 13.9637 116.157 14.0577 116.227 14.1566C116.488 14.525 116.683 14.9316 116.802 15.3598C116.808 15.3778 116.813 15.3959 116.818 15.414C116.904 15.738 116.961 16.0686 116.986 16.4018C117 16.5752 117.007 16.749 117.006 16.9228ZM99.929 20.5767H95.0655V19.9406L96.4033 19.6447V14.3785H95.0655V13.7424L97.5838 13.1802H98.2763V14.0974C99.1263 13.338 100.113 12.9584 101.235 12.9584C101.277 13.0836 101.304 13.2124 101.318 13.343C101.326 13.4216 101.33 13.5006 101.33 13.5797C101.33 13.9445 101.283 14.27 101.188 14.556L99.1892 14.3933C98.8744 14.5313 98.5701 14.699 98.2763 14.8962V19.6447L99.929 19.9406V20.5767ZM62.1697 16.198L65.538 15.9613C65.5255 15.6983 65.4852 15.437 65.4178 15.1814C65.3477 14.9162 65.2399 14.661 65.0973 14.4228C64.835 13.9889 64.4625 13.772 63.9798 13.772C63.7698 13.77 63.5619 13.8117 63.3711 13.8942C63.1803 13.9767 63.0113 14.0978 62.8761 14.2489C62.8112 14.3177 62.7513 14.3907 62.697 14.4672C62.5004 14.7472 62.3588 15.058 62.279 15.385C62.2171 15.628 62.181 15.8899 62.1707 16.1708C62.1703 16.1799 62.17 16.1889 62.1697 16.198ZM111.686 16.198L115.055 15.9613C115.042 15.6983 115.002 15.437 114.934 15.1814C114.864 14.9162 114.757 14.661 114.614 14.4228C114.352 13.9889 113.979 13.772 113.497 13.772C113.287 13.77 113.079 13.8117 112.888 13.8942C112.697 13.9767 112.528 14.0978 112.393 14.2489C112.328 14.3177 112.268 14.3907 112.214 14.4672C112.017 14.7472 111.876 15.058 111.796 15.385C111.734 15.628 111.698 15.8899 111.687 16.1708C111.687 16.1799 111.687 16.1889 111.686 16.198Z" fill="black" stroke="black" stroke-width="0.5" stroke-linecap="round"/>
    </g>
    <defs>
        <clipPath id="clip0_6_23">
            <rect width="88" height="15" fill="white" transform="translate(41 10)"/>
        </clipPath>
    </defs>
</svg>
