<svg width="143" height="32" viewBox="0 0 143 32" fill="none"
    xmlns="http://www.w3.org/2000/svg">
    <g clip-path="url(#clip0_8_2)">
        <path d="M4.81348 24.9908C4.81348 25.7496 6.02975 26.4773 8.19474 27.0138C10.3597 27.5504 13.2961 27.8518 16.3578 27.8518C19.4196 27.8518 22.3559 27.5504 24.5209 27.0138C26.6859 26.4773 27.9022 25.7496 27.9022 24.9908C27.9022 24.2321 26.6859 23.5044 24.5209 22.9678C22.3559 22.4313 19.4196 22.1299 16.3578 22.1299C13.2961 22.1299 10.3597 22.4313 8.19474 22.9678C6.02975 23.5044 4.81348 24.2321 4.81348 24.9908Z" fill="#B8CBCD"/>
        <path d="M29.8862 16.7109C29.8862 16.7109 23.8763 25.0029 16.4627 25.0029C9.0491 25.0029 3.03922 16.7109 3.03922 16.7109C3.03922 16.7109 9.0491 8.41891 16.4627 8.41891C23.8763 8.41891 29.8862 16.7109 29.8862 16.7109Z" fill="#B9E3ED"/>
        <path d="M16.4627 25.7295C8.76695 25.7295 2.70524 17.4881 2.45094 17.1372C2.36107 17.0132 2.31268 16.8639 2.31268 16.7108C2.31268 16.5577 2.36107 16.4084 2.45094 16.2844C2.70524 15.9337 8.76695 7.69211 16.4627 7.69211C24.1585 7.69211 30.2202 15.9335 30.4745 16.2844C30.5643 16.4084 30.6127 16.5577 30.6127 16.7108C30.6127 16.8639 30.5643 17.0132 30.4745 17.1372C30.2202 17.4881 24.1585 25.7295 16.4627 25.7295ZM3.95856 16.7109C5.28938 18.368 10.4572 24.2764 16.4627 24.2764C22.4682 24.2764 27.636 18.368 28.9668 16.7109C27.636 15.0539 22.4682 9.14548 16.4627 9.14548C10.4572 9.14548 5.28938 15.0539 3.95856 16.7109Z" fill="#324654"/>
        <path d="M10.6015 16.8635C10.6015 18.3671 11.1988 19.809 12.262 20.8722C13.3251 21.9354 14.7671 22.5326 16.2707 22.5326C17.7742 22.5326 19.2162 21.9354 20.2793 20.8722C21.3425 19.809 21.9398 18.3671 21.9398 16.8635C21.9398 15.36 21.3425 13.918 20.2793 12.8548C19.2162 11.7917 17.7742 11.1944 16.2707 11.1944C14.7671 11.1944 13.3251 11.7917 12.262 12.8548C11.1988 13.918 10.6015 15.36 10.6015 16.8635Z" fill="white"/>
        <path d="M16.2704 23.0173C12.8774 23.0173 10.1169 20.2568 10.1169 16.8635C10.1169 13.4705 12.8774 10.71 16.2704 10.71C19.6635 10.71 22.4242 13.4705 22.4242 16.8635C22.4242 20.2568 19.6637 23.0173 16.2704 23.0173ZM16.2704 11.6788C13.4114 11.6788 11.0857 14.0047 11.0857 16.8635C11.0857 19.7223 13.4116 22.0485 16.2704 22.0485C19.1294 22.0485 21.4554 19.7225 21.4554 16.8635C21.4554 14.0045 19.1294 11.6788 16.2704 11.6788Z" fill="#324654"/>
        <path d="M11.7398 18.9507H10.7711V18.4663C10.7711 17.4017 10.9115 15.3985 11.8515 13.9408C12.942 12.2496 14.9335 11.1569 16.9248 11.1569H17.4092V12.1256H16.9248C15.2542 12.1256 13.5824 13.0442 12.6657 14.4659C11.8602 15.7148 11.74 17.5085 11.74 18.4663L11.7398 18.9507Z" fill="#324654"/>
        <path d="M13.2871 16.8364C13.2871 17.5944 13.5883 18.3213 14.1242 18.8573C14.6602 19.3933 15.3872 19.6944 16.1452 19.6944C16.9032 19.6944 17.6302 19.3933 18.1661 18.8573C18.7021 18.3213 19.0032 17.5944 19.0032 16.8364C19.0032 16.0784 18.7021 15.3514 18.1661 14.8154C17.6302 14.2794 16.9032 13.9783 16.1452 13.9783C15.3872 13.9783 14.6602 14.2794 14.1242 14.8154C13.5883 15.3514 13.2871 16.0784 13.2871 16.8364Z" fill="#324654"/>
        <path d="M16.1452 20.1786C14.3021 20.1786 12.8028 18.6792 12.8028 16.8361C12.8028 14.9931 14.3021 13.4937 16.1452 13.4937C17.9882 13.4937 19.4876 14.9931 19.4876 16.8361C19.4876 18.6792 17.9882 20.1786 16.1452 20.1786ZM16.1452 14.4627C14.8364 14.4627 13.7715 15.5274 13.7715 16.8364C13.7715 18.1452 14.8362 19.2101 16.1452 19.2101C17.454 19.2101 18.5189 18.1454 18.5189 16.8364C18.5189 15.5274 17.454 14.4627 16.1452 14.4627Z" fill="#B9E3ED"/>
        <path d="M16.3789 8.71875C16.1862 8.71875 16.0014 8.6422 15.8651 8.50594C15.7289 8.36969 15.6523 8.18488 15.6523 7.99219V3.39063C15.6523 3.19793 15.7289 3.01312 15.8651 2.87687C16.0014 2.74061 16.1862 2.66406 16.3789 2.66406C16.5716 2.66406 16.7564 2.74061 16.8927 2.87687C17.0289 3.01312 17.1055 3.19793 17.1055 3.39063V7.99219C17.1055 8.18488 17.0289 8.36969 16.8927 8.50594C16.7564 8.6422 16.5716 8.71875 16.3789 8.71875ZM26.2069 12.215C26.0631 12.2152 25.9225 12.1727 25.8029 12.0929C25.6833 12.0131 25.5901 11.8996 25.535 11.7667C25.48 11.6339 25.4657 11.4877 25.4938 11.3467C25.522 11.2057 25.5914 11.0762 25.6932 10.9747L28.947 7.7207C29.0833 7.58443 29.2681 7.50787 29.4608 7.50787C29.6535 7.50787 29.8383 7.58443 29.9746 7.7207C30.1109 7.85696 30.1874 8.04178 30.1874 8.2345C30.1874 8.42721 30.1109 8.61203 29.9746 8.7483L26.7208 12.0021C26.6534 12.0696 26.5732 12.1232 26.4851 12.1598C26.3969 12.1963 26.3023 12.215 26.2069 12.215ZM6.93698 12.215C6.84152 12.2151 6.74698 12.1963 6.65878 12.1598C6.57059 12.1233 6.49048 12.0697 6.42306 12.0021L3.16951 8.74805C3.03325 8.61175 2.9567 8.4269 2.95673 8.23417C2.95675 8.04143 3.03333 7.8566 3.16963 7.72033C3.30594 7.58406 3.49079 7.50752 3.68352 7.50754C3.87626 7.50757 4.06109 7.58415 4.19736 7.72045L7.45115 10.9745C7.55284 11.0761 7.6221 11.2056 7.65015 11.3466C7.6782 11.4876 7.66379 11.6338 7.60875 11.7666C7.5537 11.8994 7.46048 12.0129 7.3409 12.0927C7.22132 12.1725 7.08075 12.2151 6.93698 12.215Z" fill="#324654"/>
        <g clip-path="url(#clip1_8_2)">
            <path fill-rule="evenodd" clip-rule="evenodd" d="M105.217 8.95122H106.033V12.2276V15.5041L109.555 15.5393H113.077V15.8564V16.2087H109.555L106.07 16.1734L106.033 16.2791C106.032 16.2981 106.032 16.3171 106.032 16.3361C106.03 16.5295 106.02 17.1949 106.004 18.3325C106.001 18.5405 105.998 18.7486 105.996 18.9566V21.5637L105.884 21.7751C105.867 21.8249 105.847 21.8737 105.824 21.9213C105.787 21.9956 105.745 22.0585 105.699 22.1098C105.626 22.1908 105.589 22.2432 105.588 22.2671C105.588 22.2675 105.588 22.2679 105.588 22.2683C105.602 22.2747 105.618 22.2775 105.634 22.2765C105.838 22.2933 106.716 22.3024 108.269 22.3035C108.364 22.3036 108.459 22.3036 108.554 22.3035H111.52V22.6206V22.9729H105.662H99.8036V22.6206V22.3035H102.139H104.438V19.2385V16.2087H101.361L98.3205 16.1734V15.8564V15.5393H101.398H104.438V12.2629V8.95122H105.217ZM48.5256 8.95122H49.3042L49.3413 9.1626V9.37398H51.1581L52.9378 9.40921V9.1626V8.95122H53.7535H54.5321V11.8401C54.5321 13.7895 54.5074 14.8406 54.458 14.9932C54.4316 15.0753 54.3998 15.1557 54.3628 15.234C54.3361 15.2904 54.306 15.3453 54.2726 15.3984C54.2418 15.484 54.1951 15.5638 54.1348 15.6338C54.0873 15.6894 54.0341 15.7404 53.976 15.7859C53.8524 15.8799 53.7411 15.9503 53.6423 15.9973C53.5434 16.0443 53.4074 16.0678 53.2344 16.0678H52.9378V15.7154V15.3279H51.8255H50.6761L50.7132 15.5041C50.7134 15.517 50.7142 15.5299 50.7156 15.5428C50.7235 15.6168 50.7473 15.7683 50.7873 15.9973C50.8578 16.1981 50.9393 16.452 51.032 16.7589C51.037 16.7751 51.0419 16.7913 51.0469 16.8076C51.1114 16.9906 51.183 17.1714 51.2613 17.3495C51.3111 17.4634 51.3632 17.5764 51.4176 17.6883L51.7884 18.393C51.912 18.5808 52.0109 18.7218 52.085 18.8157L52.1963 18.9566L52.3446 18.8862C52.3655 18.8726 52.3859 18.8583 52.4057 18.8433C52.4824 18.7866 52.5917 18.6952 52.7339 18.5691C52.8201 18.4921 52.9024 18.4112 52.9804 18.3266C53.0612 18.2397 53.143 18.1446 53.2258 18.0412C53.2538 18.0061 53.2814 17.9707 53.3086 17.935L53.5681 17.5122L54.3097 17.6883L55.0512 17.8293L54.94 17.935C54.927 17.9473 54.9143 17.9599 54.9017 17.9725C54.844 18.0305 54.742 18.1356 54.5958 18.2879C54.5622 18.3229 54.5286 18.3579 54.495 18.393C54.2726 18.6278 54.0934 18.7864 53.9574 18.8686C53.8235 18.9496 53.6658 19.0248 53.4841 19.094C53.4812 19.0952 53.4783 19.0964 53.4754 19.0976C53.3434 19.1473 53.2066 19.1849 53.067 19.2097C52.9996 19.2218 52.9318 19.2314 52.8636 19.2385C52.682 19.2577 52.5744 19.2768 52.5411 19.296C52.5382 19.2971 52.5357 19.2989 52.5338 19.3012C52.5319 19.3034 52.5305 19.3061 52.5299 19.3089C52.531 19.3164 52.534 19.3234 52.5386 19.3295C52.5646 19.3694 52.6472 19.4555 52.7864 19.5879C52.7874 19.5888 52.7885 19.5898 52.7895 19.5908C52.9378 19.7317 53.0985 19.8668 53.2715 19.9959C53.4445 20.1251 53.8462 20.3659 54.4765 20.7182C54.5507 20.7596 54.6249 20.8011 54.699 20.8426C55.1311 21.0849 55.3793 21.2276 55.4436 21.2707C55.449 21.2741 55.4542 21.2778 55.4591 21.2818C55.4627 21.2863 55.465 21.2916 55.4659 21.2971C55.4803 21.3609 55.4677 21.6042 55.4282 22.027C55.4261 22.0487 55.4241 22.0704 55.422 22.0921C55.403 22.2182 55.3878 22.3235 55.3763 22.408C55.3729 22.4319 55.3696 22.4558 55.3664 22.4797C55.3552 22.5638 55.3441 22.6337 55.333 22.6893C55.3318 22.6958 55.3306 22.7022 55.3293 22.7087C55.3194 22.7564 55.3093 22.7887 55.299 22.8056C55.2971 22.8088 55.2949 22.8117 55.2922 22.8144C55.2819 22.8242 55.2675 22.8298 55.249 22.8314C55.2448 22.8318 55.2407 22.832 55.2366 22.832C55.2246 22.8259 55.2129 22.8194 55.2014 22.8126C55.0971 22.7535 54.7921 22.5691 54.2862 22.2595C54.1951 22.2037 54.1041 22.148 54.013 22.0921C53.8724 22.0112 53.7322 21.9298 53.5922 21.8479C53.1147 21.568 52.8132 21.3805 52.6875 21.2854C52.6714 21.2732 52.6559 21.2603 52.6412 21.2466C52.5949 21.2112 52.5502 21.1739 52.5071 21.1351C52.4626 21.0951 52.4158 21.0507 52.3668 21.0018C52.3149 20.9494 52.2642 20.8959 52.2148 20.8415C52.0541 20.6653 51.8996 20.4715 51.7513 20.2602C51.6277 20.0723 51.4918 19.8491 51.3435 19.5908C51.1952 19.2855 51.0592 18.9684 50.9356 18.6396C50.8913 18.4973 50.8501 18.3542 50.812 18.2103C50.7745 18.0679 50.7428 17.9328 50.7169 17.8052C50.7018 17.7313 50.6882 17.6571 50.6761 17.5827C50.6496 17.4573 50.6234 17.3318 50.5976 17.2063C50.5572 17.0082 50.5216 16.8283 50.4907 16.6667C50.4717 16.523 50.4528 16.3242 50.4338 16.0701C50.4277 15.9871 50.4219 15.9041 50.4165 15.8211V15.3279H49.8604H49.3042L49.3413 18.393V21.4228H50.2312L51.121 21.458V21.7751V22.0921H50.1941H49.2301L49.0818 22.3035C49.0602 22.3448 49.0371 22.3853 49.0125 22.4251C48.9615 22.5069 48.9104 22.5721 48.8593 22.6206C48.8221 22.6671 48.7789 22.7089 48.7308 22.7451C48.6875 22.778 48.6383 22.8091 48.5831 22.8384C48.5641 22.8485 48.545 22.858 48.5256 22.8672C48.4226 22.9259 48.2941 22.9602 48.14 22.97C48.1079 22.972 48.0757 22.9729 48.0436 22.9729H47.747V15.9621V8.95122H48.5256ZM116.507 13.9892H116.136C116.136 13.8175 116.139 13.6458 116.144 13.4742C116.153 13.1454 116.173 12.8663 116.204 12.6369C116.206 12.6208 116.208 12.6048 116.21 12.5888C116.26 12.2423 116.383 11.9458 116.581 11.6992C116.927 11.2999 117.425 10.9652 118.073 10.6951C118.722 10.425 119.405 10.29 120.122 10.29C120.659 10.2856 121.193 10.3683 121.701 10.5342C122.058 10.6535 122.396 10.8172 122.708 11.021C123.114 11.291 123.42 11.6759 123.583 12.1208C123.686 12.3834 123.756 12.6794 123.795 13.0086C123.819 13.2172 123.83 13.427 123.83 13.6369C123.83 14.3767 123.647 15.0696 123.283 15.7154C122.934 16.3294 122.5 16.8967 121.994 17.4024C121.954 17.4423 121.914 17.4818 121.874 17.521C121.674 17.7141 121.471 17.9042 121.265 18.0911C120.838 18.4802 120.328 18.9259 119.734 19.4281C119.635 19.5119 119.536 19.5955 119.436 19.6789C118.544 20.4402 117.893 20.9998 117.483 21.3576C117.404 21.426 117.326 21.4947 117.248 21.5637H121.42C121.637 21.5649 121.855 21.5502 122.07 21.5196C122.513 21.4543 122.871 21.3163 123.144 21.1057C123.399 20.9064 123.579 20.6341 123.659 20.3294C123.704 20.1682 123.73 19.991 123.736 19.7981C123.737 19.7701 123.737 19.7421 123.737 19.7141H124.108V20.8591C124.108 21.6083 123.774 22.0589 123.105 22.2108C122.917 22.2511 122.725 22.2704 122.532 22.2683H115.951V21.3875C116.452 20.9291 116.863 20.5567 117.184 20.2701C117.273 20.1902 117.363 20.1105 117.452 20.0312C118.676 18.9155 119.572 18.0641 120.141 17.477C120.46 17.1488 120.753 16.7976 121.016 16.4265C121.189 16.1814 121.345 15.9263 121.485 15.6626C121.812 15.0402 121.976 14.365 121.976 13.6369C121.978 13.3785 121.953 13.1207 121.901 12.8671C121.837 12.5653 121.732 12.2977 121.587 12.0644C121.5 11.926 121.398 11.7975 121.281 11.6816C121.069 11.4664 120.814 11.2946 120.53 11.1765C120.246 11.0585 119.939 10.9968 119.629 10.9952C119.608 10.9947 119.587 10.9945 119.566 10.9946C119.205 10.991 118.846 11.0567 118.513 11.1878C118.179 11.3188 117.876 11.5125 117.623 11.7573C117.619 11.7614 117.614 11.7655 117.61 11.7696C117.319 12.0476 117.083 12.3727 116.913 12.7297C116.733 13.0953 116.598 13.5151 116.507 13.9892ZM70.1788 8.42276L70.9574 8.45799V9.37398V10.29H72.7H74.4427V10.607V10.9241L72.7 10.9593H70.9574V11.523V12.0867H72.4405H73.8865V12.439V12.7561H72.4405H70.9574V12.9675C70.9574 13.0149 70.9557 13.0623 70.9525 13.1096C70.9488 13.1624 70.9432 13.2188 70.9358 13.2787C70.9311 13.3159 70.926 13.3531 70.9203 13.3902C70.8729 13.5472 70.8258 13.6721 70.7788 13.7649C70.7766 13.7692 70.7743 13.7735 70.772 13.7778L70.6979 13.8835H72.7742H74.8134V14.2005C74.8136 14.237 74.8124 14.2734 74.8097 14.3098C74.8007 14.4205 74.7772 14.4941 74.7393 14.5305C74.729 14.5406 74.7163 14.5483 74.7022 14.5528C74.6738 14.5574 74.6451 14.5598 74.6163 14.5599C74.2488 14.5759 72.7449 14.5736 70.1046 14.5528H65.5812V14.2358L65.5441 13.8835H67.4721H69.3631V13.3198V12.7561H67.9171H66.471V12.439V12.0867H67.9171H69.3631V11.523V10.9593H67.6204H65.8778V10.607V10.29H67.6204H69.3631V9.37398C69.3631 9.30509 69.3633 9.23619 69.3637 9.1673C69.3662 8.73436 69.3775 8.49929 69.3977 8.4621C69.3983 8.46062 69.3991 8.45923 69.4002 8.45799C69.4102 8.45181 69.4216 8.44799 69.4335 8.44684C69.5155 8.43196 69.7382 8.42394 70.1015 8.42276C70.1273 8.42273 70.153 8.42273 70.1788 8.42276ZM90.1264 8.59892H90.905V8.95122C90.905 9.17552 90.8937 9.35696 90.871 9.49553C90.87 9.50199 90.869 9.50845 90.868 9.51491C90.82 9.65051 90.7627 9.78292 90.6962 9.91125C90.6917 9.92007 90.6871 9.92888 90.6826 9.93767C90.6633 9.98079 90.6424 10.0233 90.6202 10.0651C90.5757 10.1477 90.5312 10.2134 90.4867 10.2624C90.4782 10.2719 90.4693 10.2811 90.4601 10.29C90.4277 10.3204 90.3935 10.3491 90.3575 10.3757C90.3225 10.4019 90.2842 10.4282 90.2426 10.4544C90.2166 10.4706 90.1902 10.4862 90.1635 10.5014L89.9781 10.6423C90.023 10.6638 90.3965 10.6658 91.0984 10.6481C91.1699 10.6463 91.2414 10.6443 91.3129 10.6423H92.6106V10.3252V10.0081H93.4263H94.2791L94.242 12.6504C94.242 14.4354 94.2173 15.4101 94.1678 15.5745C94.1184 15.7154 94.0566 15.8681 93.9825 16.0325C93.8902 16.186 93.7979 16.3191 93.7056 16.4318C93.6991 16.4397 93.6925 16.4475 93.6858 16.4553C93.587 16.5727 93.4634 16.6667 93.3151 16.7371C93.2555 16.7658 93.1924 16.7873 93.1272 16.8011C93.0415 16.8191 92.9558 16.8213 92.8701 16.8076H92.6477L92.6106 16.3144V15.8211H89.941H87.2344V19.168C87.2344 19.4334 87.2342 19.6988 87.2337 19.9642C87.2313 21.5488 87.221 22.4636 87.2029 22.7087C87.2018 22.7264 87.1999 22.744 87.1973 22.7615C87.1479 22.9259 87.0861 23.0551 87.0119 23.1491C86.9811 23.2347 86.9344 23.3145 86.8741 23.3845C86.8266 23.4401 86.7734 23.4911 86.7153 23.5366C86.5917 23.654 86.4496 23.7421 86.2889 23.8008C86.2323 23.8216 86.1745 23.8395 86.1159 23.8542C86.0586 23.8687 86.0042 23.8787 85.9527 23.8842C85.9228 23.8873 85.8926 23.8889 85.8625 23.8889H85.64V16.9485V10.0081H86.4557H87.2344V10.3252V10.6423H88.2725H89.2736V9.65583C89.2735 9.57597 89.2735 9.49612 89.2736 9.41626C89.2753 8.89329 89.2814 8.62671 89.2922 8.61653C89.3045 8.60479 89.5826 8.59892 90.1264 8.59892ZM82.0065 8H82.5997L82.6368 9.58537V11.1707H83.4154H84.194V11.4878V11.8401H83.4154H82.6368V13.5664C82.6367 13.6985 82.6367 13.8306 82.6368 13.9627C82.6384 14.7926 82.6442 15.2236 82.6541 15.2557C82.6541 15.2561 82.6543 15.2564 82.6545 15.2567C82.6547 15.257 82.655 15.2573 82.6553 15.2575C82.6602 15.2564 82.665 15.2548 82.6695 15.2528C82.7181 15.2328 82.8842 15.1539 83.1676 15.0161C83.2193 14.9909 83.271 14.9657 83.3227 14.9404C83.7553 14.729 83.9839 14.6409 84.0086 14.6762C84.0334 14.7114 84.0334 14.8817 84.0086 15.187V15.645L83.3412 15.9973L82.6368 16.3144V18.8509L82.5997 21.3523L82.4885 21.6694C82.4221 21.8373 82.3657 21.9773 82.3191 22.0892C82.3138 22.1019 82.3085 22.1147 82.3031 22.1274C82.2289 22.2683 82.1424 22.3975 82.0435 22.5149C81.9843 22.5857 81.9198 22.6524 81.8507 22.7145C81.8116 22.7496 81.7708 22.7829 81.7284 22.8144C81.706 22.831 81.6831 22.8471 81.6598 22.8625C81.5926 22.9067 81.5401 22.9314 81.5022 22.9365C81.4973 22.9372 81.4923 22.9376 81.4874 22.9377C81.4445 22.9377 81.4202 22.1869 81.4145 20.6853C81.4136 20.4438 81.4132 20.2022 81.4132 19.9607C81.4132 19.7282 81.413 19.4957 81.4126 19.2631C81.4101 17.8023 81.3988 17.0436 81.3786 16.9873C81.3786 16.9865 81.3783 16.9858 81.3779 16.9852C81.3775 16.9846 81.3769 16.9841 81.3761 16.9837C81.3651 16.9847 81.3543 16.987 81.344 16.9908C81.2385 17.0245 80.9156 17.1748 80.3751 17.4417L79.411 17.8997L79.4481 17.4065V16.9133L80.4121 16.4201L81.3761 15.9268L81.4132 13.8835V11.8401H80.2638H79.1144L79.1515 11.523V11.1707H80.2638L81.3761 11.1355L81.4132 9.55014V8H82.0065ZM61.2061 9.79675H61.7993V9.90244V10.0081H62.9487H64.1352V9.90244V9.79675H64.6913H65.2475V15.6098V21.4228L65.1363 21.6694C65.0621 21.8338 64.9756 21.9865 64.8767 22.1274C64.8043 22.2126 64.722 22.2898 64.6314 22.3575C64.5909 22.3882 64.549 22.4172 64.5059 22.4444C64.476 22.4608 64.446 22.4768 64.4157 22.4926C64.302 22.5513 64.2287 22.5822 64.1957 22.5854C64.1941 22.5854 64.1924 22.5854 64.1908 22.5854C64.1876 22.5846 64.1847 22.5829 64.1824 22.5807C64.1801 22.5784 64.1785 22.5755 64.1778 22.5724C64.1535 22.5223 64.1397 22.3223 64.1364 21.9724C64.1357 21.9066 64.1352 21.8408 64.1352 21.7751V20.9648H62.9487H61.7993V21.1057C61.7993 21.2231 61.7746 21.3406 61.7251 21.458C61.7004 21.5989 61.651 21.7281 61.5768 21.8455C61.5466 21.9165 61.5095 21.9847 61.4662 22.0493C61.4319 22.1007 61.3945 22.1503 61.3544 22.1978C61.2811 22.2679 61.2017 22.3319 61.1171 22.3893C61.0683 22.4222 61.0175 22.4524 60.965 22.4797C60.9415 22.4919 60.9178 22.5038 60.894 22.5155C60.7984 22.5621 60.7356 22.5854 60.7055 22.5854C60.6952 22.5528 60.6908 22.5189 60.6925 22.485C60.6658 22.0438 60.6515 20.1451 60.6499 16.7888C60.6498 16.5837 60.6498 16.3786 60.6499 16.1734V9.79675H61.2061ZM42.5932 9.44444H43.1864V9.58537L43.2235 9.76152L44.1134 9.79675H45.0032V9.6206L45.0403 9.44444H45.6336H46.2268V14.8347V20.2249L46.1156 20.542C46.0851 20.6395 46.0502 20.7357 46.0111 20.8303C45.9633 20.945 45.9116 21.0485 45.856 21.1409C45.8329 21.1999 45.8065 21.2578 45.7769 21.3141C45.7221 21.4183 45.662 21.5014 45.5965 21.5637C45.548 21.6245 45.4915 21.6792 45.4284 21.7263C45.3875 21.757 45.3446 21.785 45.2999 21.8103C45.2784 21.8225 45.2568 21.8345 45.235 21.8461C45.1476 21.8927 45.0889 21.916 45.0589 21.916C45.0539 21.915 45.0492 21.9128 45.0455 21.9095C45.0418 21.9061 45.0391 21.9019 45.0378 21.8972C45.0148 21.8502 45.0032 21.7156 45.0032 21.4932V21.0352H43.9651H42.9269L42.8157 21.2114C42.796 21.2571 42.7718 21.3009 42.7434 21.3423C42.7162 21.3826 42.6838 21.4243 42.6464 21.4674C42.6061 21.5131 42.5636 21.5569 42.5191 21.5989C42.3955 21.7398 42.2966 21.8279 42.2224 21.8631C42.1656 21.8902 42.1194 21.9068 42.084 21.9131C42.0747 21.9149 42.0651 21.9158 42.0556 21.916C42.0453 21.8845 42.0409 21.8515 42.0426 21.8185C42.0158 21.3895 42.0016 19.5428 42 16.2785C41.9999 16.0791 41.9999 15.8797 42 15.6802L42 9.44444H42.5932ZM72.5888 15.2927H73.3674V18.4282C73.3674 20.4492 73.3448 21.6007 73.2995 21.8825C73.2978 21.8937 73.2957 21.9049 73.2933 21.916C73.2438 22.1509 73.1573 22.3622 73.0337 22.5501C72.9853 22.6745 72.9223 22.7933 72.8459 22.9042C72.8124 22.9525 72.7761 22.9989 72.7371 23.0434C72.6654 23.1283 72.594 23.1949 72.5227 23.243C72.4966 23.2606 72.4691 23.2763 72.4405 23.29C72.3416 23.3369 72.2057 23.3604 72.0326 23.3604H71.8102V21.8103V20.2954H70.1788H68.5474V20.8591C68.5474 20.9515 68.5466 21.0439 68.5449 21.1362C68.5404 21.3891 68.529 21.5772 68.5109 21.7005C68.5107 21.7019 68.5105 21.7032 68.5103 21.7046C68.4856 21.869 68.4361 22.051 68.362 22.2507C68.3144 22.3799 68.2589 22.5063 68.1958 22.6294C68.1665 22.6861 68.1354 22.7419 68.1024 22.7967C68.0328 22.9291 67.9307 23.0612 67.7959 23.1931C67.7869 23.202 67.7779 23.2108 67.7687 23.2195C67.7324 23.2543 67.6936 23.2867 67.6526 23.3164C67.6093 23.3473 67.5661 23.3728 67.5228 23.3927C67.5062 23.4003 67.4893 23.4072 67.4721 23.4133C67.3856 23.4442 67.2896 23.4526 67.1842 23.4385C67.1688 23.4364 67.1536 23.4339 67.1384 23.4309H66.953V19.4146V15.3631H67.7687H68.5474V15.5041V15.6098H70.1788H71.8102V15.4688V15.2927H72.5888ZM87.2344 13.2846L87.2714 15.1165H89.941L92.6106 15.1518V13.2493V11.3469H89.941C89.7324 11.3468 89.5237 11.347 89.315 11.3475C88.1034 11.351 87.4257 11.3651 87.282 11.3897C87.2713 11.3898 87.2611 11.3933 87.2529 11.3997C87.2422 11.4307 87.236 11.9127 87.2344 12.8459C87.2343 12.9921 87.2343 13.1383 87.2344 13.2846ZM49.3042 10.0434V12.1924H52.9378V10.0434H49.3042ZM44.1134 16.878H43.1864V18.5339C43.1864 18.6636 43.1862 18.7934 43.1858 18.9232C43.1829 19.7734 43.1708 20.2191 43.1494 20.2602V20.3659H44.0763H45.0032V18.6043V16.878H44.1134ZM49.3042 12.897L49.3413 13.7778V14.6938H52.9378V12.897H49.3042ZM61.7993 15.5041V16.9133H62.9487H64.1352L64.0981 15.5041V14.0596H62.9858C62.896 14.0595 62.8061 14.0595 62.7163 14.0596C62.128 14.0612 61.8285 14.0671 61.8178 14.0772C61.8071 14.0874 61.8011 14.4485 61.7999 15.1606C61.7996 15.2751 61.7994 15.3896 61.7993 15.5041ZM61.7993 10.6775V13.3902H64.0981V12.0163L64.1352 10.6775H61.7993ZM61.7993 18.9919V20.2602H62.9487L64.1352 20.2954V18.9214V17.5827H62.9858C62.2628 17.5827 61.8753 17.5983 61.8234 17.6296C61.8209 17.631 61.819 17.633 61.8178 17.6355C61.8055 17.6707 61.7993 18.1229 61.7993 18.9919ZM68.5474 16.2791V17.7236H71.8102V16.2791H68.5474ZM68.5474 18.393V19.5908H71.8102V18.393H68.5474ZM43.1864 14.9404L43.2235 16.1734H44.1134H45.0032V14.9051V13.6016H44.1134C44.0438 13.6015 43.9741 13.6017 43.9045 13.6022C43.4489 13.6061 43.2157 13.6235 43.205 13.6545C43.2025 13.6649 43.2011 13.6755 43.2007 13.6862C43.1912 13.8032 43.1864 14.2213 43.1864 14.9404ZM43.1864 11.6992V12.9322H44.1134H45.0032V11.6992V10.4661L44.1134 10.4309C44.0466 10.4309 43.9799 10.4311 43.9132 10.4315C43.4934 10.4338 43.2647 10.4446 43.2272 10.4638C43.2259 10.4644 43.2246 10.4652 43.2235 10.4661C43.2185 10.4744 43.2156 10.4836 43.2149 10.4931C43.1988 10.5832 43.1895 10.8897 43.1871 11.4126C43.1866 11.5082 43.1864 11.6037 43.1864 11.6992Z" fill="black" stroke="black" stroke-width="0.25" stroke-linecap="round"/>
        </g>
    </g>
    <defs>
        <clipPath id="clip0_8_2">
            <rect width="143" height="32" fill="white"/>
        </clipPath>
        <clipPath id="clip1_8_2">
            <rect width="125" height="22" fill="white" transform="translate(42 8)"/>
        </clipPath>
    </defs>
</svg>
